<svg width="27" height="28" viewBox="0 0 27 28" fill="none" xmlns="http://www.w3.org/2000/svg">
<path fill-rule="evenodd" clip-rule="evenodd" d="M22.7133 4.03603C27.0755 7.34906 27.9186 14.3662 24.4814 20.3198C21.044 26.2732 14.5455 29.0516 9.49517 26.9304C8.16076 26.3677 6.86469 25.7181 5.61533 24.9857L12.3523 13.317L19.0892 1.64832C20.3482 2.36407 21.5588 3.16169 22.7133 4.03603Z" fill="url(#paint0_linear_113_144)"/>
<path style="mix-blend-mode:screen" fill-rule="evenodd" clip-rule="evenodd" d="M22.5698 5.6174C25.5868 7.90693 26.6082 12.9978 24.8195 17.4366C23.0308 21.8754 19.0662 24.0876 15.6913 22.6868C14.7913 22.311 13.9177 21.8747 13.0767 21.3808L16.5826 12.681L20.0884 3.9812C20.9503 4.4719 21.7792 5.01846 22.5698 5.6174Z" fill="url(#paint1_radial_113_144)"/>
<path style="mix-blend-mode:multiply" fill-rule="evenodd" clip-rule="evenodd" d="M23.008 5.36968C26.726 8.20128 27.5466 14.305 24.7541 19.5362C22.1575 24.4003 17.2934 26.9059 13.1852 25.7994C11.9334 26.1788 10.618 26.3022 9.31751 26.1624C8.01699 26.0226 6.75792 25.6225 5.61533 24.9858C6.86469 25.7182 8.16076 26.3678 9.49517 26.9304C14.5455 29.0517 21.044 26.2733 24.4814 20.3198C27.9186 14.3663 27.0754 7.34912 22.7133 4.03609C21.564 3.16563 20.359 2.37127 19.1061 1.65808C20.4539 2.44485 21.5795 3.56157 22.3768 4.90317C22.5879 5.05442 22.7974 5.20929 23.008 5.36968Z" fill="url(#paint2_radial_113_144)"/>
<g style="mix-blend-mode:screen">
<path fill-rule="evenodd" clip-rule="evenodd" d="M19.8429 2.18875C24.7931 5.04675 25.8869 12.4195 22.286 18.6565C18.6851 24.8935 11.7532 27.6326 6.80289 24.7746C1.85269 21.9165 0.758875 14.5438 4.35986 8.3068C7.96073 2.06987 14.8927 -0.669253 19.8429 2.18875Z" fill="#FCCE3A"/>
</g>
<path fill-rule="evenodd" clip-rule="evenodd" d="M19.0893 1.64837C24.3218 4.66939 25.5475 12.3428 21.8268 18.7872C18.1061 25.2316 10.848 28.0068 5.6153 24.9858C0.382712 21.9647 -0.843077 14.2914 2.87775 7.84691C6.59836 1.40244 13.8566 -1.37272 19.0893 1.64837Z" fill="url(#paint3_radial_113_144)"/>
<g style="mix-blend-mode:screen">
<path fill-rule="evenodd" clip-rule="evenodd" d="M13.6905 22.7416C13.6417 22.9039 13.5506 23.0502 13.4266 23.1656C13.3026 23.2811 13.1501 23.3615 12.9848 23.3986C12.843 23.4407 12.6936 23.4507 12.5474 23.4279C12.4012 23.405 12.262 23.3499 12.1398 23.2666C10.6076 23.6554 8.98869 23.5109 7.54964 22.8568C3.39673 20.9196 2.04952 15.0197 4.54077 9.67916C5.73315 6.98617 7.86546 4.8196 10.5391 3.58443C10.5661 3.39337 10.6514 3.21529 10.7834 3.07454C10.9154 2.93379 11.0877 2.83722 11.2766 2.79802C11.4475 2.74379 11.6301 2.73829 11.8039 2.78215C11.9777 2.82601 12.1359 2.91749 12.2605 3.0463C12.8084 2.93572 13.3668 2.88668 13.9256 2.90008C14.0013 2.79608 14.1067 2.71746 14.228 2.67459C14.3493 2.63171 14.4808 2.62658 14.605 2.65988C14.7108 2.67858 14.8105 2.72213 14.8961 2.78694C14.9817 2.85176 15.0506 2.93598 15.0973 3.03268C15.6061 3.13511 16.1009 3.29765 16.5713 3.51687C20.7245 5.45422 22.0716 11.3541 19.5803 16.6946C18.4024 19.3491 16.313 21.4942 13.6905 22.7416Z" fill="#FFFCE4"/>
</g>
<path fill-rule="evenodd" clip-rule="evenodd" d="M17.3001 4.0251C21.2132 6.2844 22.0301 12.1951 19.1249 17.2272C16.2196 22.2592 10.6922 24.507 6.77917 22.2478C2.86607 19.9885 2.04895 14.0778 4.95429 9.04578C7.85953 4.01376 13.387 1.7659 17.3001 4.0251Z" fill="url(#paint4_radial_113_144)"/>
<path style="mix-blend-mode:multiply" opacity="0.5" fill-rule="evenodd" clip-rule="evenodd" d="M7.08795 11.0388C9.83862 6.2745 15.0719 4.14629 18.7768 6.28527C19.3 6.58747 19.7757 6.96531 20.1884 7.40657C19.6292 5.98914 18.6127 4.79904 17.3001 4.0251C13.387 1.76591 7.85957 4.01374 4.9543 9.04579C2.04893 14.0778 2.86608 19.9885 6.77918 22.2478C7.05957 22.4098 7.35175 22.5504 7.65326 22.6685C4.97937 20.1215 4.65396 15.2544 7.08795 11.0388Z" fill="url(#paint5_radial_113_144)"/>
<path fill-rule="evenodd" clip-rule="evenodd" d="M6.24457 9.79069C8.90358 5.18508 13.7591 2.91188 17.5631 4.29175C17.6845 4.33568 17.8046 4.38341 17.9237 4.43494C17.8209 4.35853 17.7156 4.28504 17.6078 4.21447C17.5074 4.14876 17.4049 4.08563 17.3001 4.02511C13.387 1.7659 7.85957 4.01374 4.9543 9.04579C2.04893 14.0778 2.86608 19.9885 6.77918 22.2478C6.88397 22.3083 6.98989 22.3656 7.09695 22.4197C7.21204 22.4778 7.32834 22.5323 7.44583 22.583C7.34172 22.5056 7.24033 22.4254 7.14167 22.3424C4.04453 19.7379 3.58555 14.3963 6.24457 9.79069Z" fill="url(#paint6_linear_113_144)"/>
<path style="mix-blend-mode:multiply" fill-rule="evenodd" clip-rule="evenodd" d="M14.8283 3.90234C15.7568 3.84649 16.6871 3.97895 17.5631 4.29175C17.6845 4.33568 17.8046 4.38341 17.9237 4.43494C17.8209 4.35853 17.7156 4.28504 17.6078 4.21447C17.5074 4.14876 17.4049 4.08563 17.3001 4.02511C13.387 1.7659 7.85957 4.01374 4.9543 9.04579C2.04893 14.0778 2.86608 19.9885 6.77918 22.2478C6.88397 22.3083 6.98989 22.3656 7.09695 22.4197C7.21204 22.4778 7.32834 22.5323 7.44583 22.583C7.34172 22.5056 7.24033 22.4254 7.14167 22.3424C6.66543 21.9405 6.2475 21.4741 5.89993 20.9568C3.01462 18.5353 2.53666 13.5458 4.94409 9.23369C7.2379 5.1253 11.3934 2.98907 14.8283 3.90234Z" fill="url(#paint7_radial_113_144)"/>
<path style="mix-blend-mode:screen" fill-rule="evenodd" clip-rule="evenodd" d="M18.1686 6.21349C11.2343 3.06036 4.75728 12.0976 5.71078 17.9319C9.54717 16.4996 15.9263 13.3569 18.1686 6.21349Z" fill="url(#paint8_radial_113_144)"/>
<defs>
<linearGradient id="paint0_linear_113_144" x1="11.6799" y1="28.4871" x2="25.1537" y2="5.14966" gradientUnits="userSpaceOnUse">
<stop stop-color="#E86F0C"/>
<stop offset="0.68773" stop-color="#FC940D"/>
<stop offset="1" stop-color="#E86F0C"/>
</linearGradient>
<radialGradient id="paint1_radial_113_144" cx="0" cy="0" r="1" gradientUnits="userSpaceOnUse" gradientTransform="translate(16.6123 12.9067) scale(12.6528)">
<stop stop-color="#FFF369"/>
<stop offset="0.11021" stop-color="#FAEF67"/>
<stop offset="0.23412" stop-color="#EDE262"/>
<stop offset="0.36472" stop-color="#D6CC58"/>
<stop offset="0.49992" stop-color="#B7AE4B"/>
<stop offset="0.63879" stop-color="#8E873B"/>
<stop offset="0.78066" stop-color="#5C5826"/>
<stop offset="0.92227" stop-color="#23210E"/>
<stop offset="1"/>
</radialGradient>
<radialGradient id="paint2_radial_113_144" cx="0" cy="0" r="1" gradientUnits="userSpaceOnUse" gradientTransform="translate(9.97724 12.0446) scale(18.3628)">
<stop offset="0.51487" stop-color="white"/>
<stop offset="0.679" stop-color="#E6DDC3"/>
<stop offset="1" stop-color="#B09444"/>
</radialGradient>
<radialGradient id="paint3_radial_113_144" cx="0" cy="0" r="1" gradientUnits="userSpaceOnUse" gradientTransform="translate(7.52261 1.16975) scale(23.5469 23.5469)">
<stop stop-color="#FCF80D"/>
<stop offset="1" stop-color="#FC9C0D"/>
</radialGradient>
<radialGradient id="paint4_radial_113_144" cx="0" cy="0" r="1" gradientUnits="userSpaceOnUse" gradientTransform="translate(0.748744 -1.16434) scale(28.772 28.772)">
<stop stop-color="#FCF80D"/>
<stop offset="1" stop-color="#F78A0C"/>
</radialGradient>
<radialGradient id="paint5_radial_113_144" cx="0" cy="0" r="1" gradientUnits="userSpaceOnUse" gradientTransform="translate(16.7919 15.3286) scale(16.6225 16.6225)">
<stop offset="0.51487" stop-color="white"/>
<stop offset="0.68506" stop-color="#FFE2C3"/>
<stop offset="1" stop-color="#FFA84B"/>
</radialGradient>
<linearGradient id="paint6_linear_113_144" x1="3.55912" y1="20.3887" x2="13.9208" y2="2.44181" gradientUnits="userSpaceOnUse">
<stop stop-color="#FC940D"/>
<stop offset="1" stop-color="#E86F0C"/>
</linearGradient>
<radialGradient id="paint7_radial_113_144" cx="0" cy="0" r="1" gradientUnits="userSpaceOnUse" gradientTransform="translate(17.0874 16.0308) scale(16.1143 16.1143)">
<stop offset="0.51487" stop-color="white"/>
<stop offset="0.679" stop-color="#E6DDC3"/>
<stop offset="1" stop-color="#B09444"/>
</radialGradient>
<radialGradient id="paint8_radial_113_144" cx="0" cy="0" r="1" gradientUnits="userSpaceOnUse" gradientTransform="translate(0.184618 -0.838591) scale(21.4276)">
<stop stop-color="#FFF369"/>
<stop offset="0.11021" stop-color="#FAEF67"/>
<stop offset="0.23412" stop-color="#EDE262"/>
<stop offset="0.36472" stop-color="#D6CC58"/>
<stop offset="0.49992" stop-color="#B7AE4B"/>
<stop offset="0.63879" stop-color="#8E873B"/>
<stop offset="0.78066" stop-color="#5C5826"/>
<stop offset="0.92227" stop-color="#23210E"/>
<stop offset="1"/>
</radialGradient>
</defs>
</svg>
